<svg width="5" height="9" viewBox="0 0 5 9" fill="none" xmlns="http://www.w3.org/2000/svg">
<path d="M4.65137 4.39893C4.65137 4.42627 4.64453 4.45589 4.63086 4.48779C4.61719 4.51969 4.59668 4.54932 4.56934 4.57666L0.932617 8.21338C0.905273 8.24072 0.875651 8.26123 0.84375 8.2749C0.811849 8.28857 0.782227 8.29541 0.754883 8.29541C0.718424 8.29541 0.684245 8.28857 0.652344 8.2749C0.620443 8.26123 0.595378 8.24072 0.577148 8.21338L0.180664 7.83057C0.162435 7.80322 0.144206 7.7736 0.125977 7.7417C0.107747 7.7098 0.0986328 7.67562 0.0986328 7.63916C0.0986328 7.61182 0.107747 7.58219 0.125977 7.55029C0.144206 7.51839 0.162435 7.48877 0.180664 7.46143L3.25684 4.39893L0.180664 1.32275C0.162435 1.30452 0.144206 1.27718 0.125977 1.24072C0.107747 1.20426 0.0986328 1.17236 0.0986328 1.14502C0.0986328 1.11768 0.107747 1.08577 0.125977 1.04932C0.144206 1.01286 0.162435 0.985514 0.180664 0.967285L0.577148 0.570801C0.595378 0.552572 0.620443 0.536621 0.652344 0.522949C0.684245 0.509277 0.718424 0.502441 0.754883 0.502441C0.782227 0.502441 0.811849 0.509277 0.84375 0.522949C0.875651 0.536621 0.905273 0.552572 0.932617 0.570801L4.56934 4.22119C4.59668 4.23942 4.61719 4.26449 4.63086 4.29639C4.64453 4.32829 4.65137 4.36247 4.65137 4.39893Z" fill="white"/>
</svg>
