<svg width="18" height="18" viewBox="0 0 18 18" fill="none" xmlns="http://www.w3.org/2000/svg">
<path d="M16.6172 0.791504C16.8776 0.791504 17.1022 0.885904 17.291 1.07471C17.4798 1.26351 17.5742 1.48812 17.5742 1.74854V16.9829C17.5742 17.2563 17.4798 17.4842 17.291 17.6665C17.1022 17.8488 16.8776 17.9399 16.6172 17.9399H12.2617V11.2993H14.4688L14.8203 8.70166H12.2617V7.06104C12.2617 6.68343 12.3398 6.3807 12.4961 6.15283C12.6523 5.92497 12.9974 5.81104 13.5312 5.81104L14.8984 5.7915V3.48682C14.7812 3.4738 14.5371 3.45426 14.166 3.42822C13.7949 3.40218 13.375 3.38916 12.9062 3.38916C11.9297 3.38916 11.1322 3.68213 10.5137 4.26807C9.89518 4.854 9.58594 5.70036 9.58594 6.80713V8.70166H7.33984V11.2993H9.58594V17.9399H1.38281C1.10938 17.9399 0.88151 17.8488 0.699219 17.6665C0.516927 17.4842 0.425781 17.2563 0.425781 16.9829V1.74854C0.425781 1.48812 0.516927 1.26351 0.699219 1.07471C0.88151 0.885904 1.10938 0.791504 1.38281 0.791504H16.6172Z" fill="white"/>
</svg>
