<svg width="21" height="18" viewBox="0 0 21 18" fill="none" xmlns="http://www.w3.org/2000/svg">
<path fill-rule="evenodd" clip-rule="evenodd" d="M6.41992 1.5C4.18927 1.5 2.41992 3.30906 2.41992 5.5C2.41992 6.4282 2.79676 7.4436 3.46862 8.5105C4.13684 9.5716 5.0614 10.6274 6.07119 11.6219C7.47761 13.007 8.95172 14.1879 10.0907 15.1003C10.3933 15.3427 10.6722 15.5661 10.9199 15.7694C11.1676 15.5661 11.4465 15.3427 11.7491 15.1003C12.8881 14.1879 14.3622 13.007 15.7686 11.6219C16.7784 10.6274 17.703 9.5716 18.3712 8.5105C19.0431 7.4436 19.4199 6.4282 19.4199 5.5C19.4199 3.30898 17.6513 1.5 15.4199 1.5C13.2672 1.5 11.9937 3.20226 11.6461 3.74742C11.3088 4.27655 10.531 4.27653 10.1937 3.74742C9.84612 3.20225 8.57265 1.5 6.41992 1.5ZM0.919922 5.5C0.919922 2.49094 3.35057 0 6.41992 0C8.65135 0 10.1448 1.30207 10.9199 2.21581C11.695 1.30207 13.1885 0 15.4199 0C18.4901 0 20.9199 2.49102 20.9199 5.5C20.9199 6.8218 20.3905 8.1189 19.6405 9.3098C18.8868 10.5066 17.8739 11.6539 16.8212 12.6906C15.3628 14.1269 13.7279 15.4384 12.5701 16.3672C12.0848 16.7565 11.6833 17.0786 11.4138 17.3144C11.131 17.5619 10.7088 17.5619 10.426 17.3144C10.1565 17.0786 9.75502 16.7565 9.26972 16.3672C8.11193 15.4384 6.47704 14.1269 5.01865 12.6906C3.96594 11.6539 2.953 10.5066 2.19934 9.3098C1.44933 8.1189 0.919922 6.8218 0.919922 5.5Z" fill="#606060"/>
</svg>
