<svg width="15" height="15" viewBox="0 0 15 15" fill="none" xmlns="http://www.w3.org/2000/svg">
<path fill-rule="evenodd" clip-rule="evenodd" d="M7.04999 14.5C10.916 14.5 14.05 11.366 14.05 7.5C14.05 3.63401 10.916 0.5 7.04999 0.5C3.184 0.5 0.0499878 3.63401 0.0499878 7.5C0.0499878 11.366 3.184 14.5 7.04999 14.5ZM8.05002 4C8.05002 4.55229 7.6023 5 7.05002 5C6.49773 5 6.05002 4.55229 6.05002 4C6.05002 3.44772 6.49773 3 7.05002 3C7.6023 3 8.05002 3.44772 8.05002 4ZM6.15011 6.29844C5.81874 6.29844 5.55011 6.56707 5.55011 6.89844C5.55011 7.22981 5.81874 7.49844 6.15011 7.49844H6.45007V10.3024H5.65158C5.32021 10.3024 5.05158 10.571 5.05158 10.9023C5.05158 11.2337 5.32021 11.5023 5.65158 11.5023H8.45154C8.78291 11.5023 9.05154 11.2337 9.05154 10.9023C9.05154 10.571 8.78291 10.3024 8.45154 10.3024H7.65007V6.89844C7.65007 6.56707 7.38145 6.29844 7.05007 6.29844H6.15011Z" fill="#CACBCE"/>
</svg>
