<svg width="18" height="18" viewBox="0 0 18 18" fill="none" xmlns="http://www.w3.org/2000/svg">
<path d="M11.8516 8.75562C11.8516 7.97437 11.5716 7.30379 11.0117 6.7439C10.4518 6.184 9.78125 5.90405 9 5.90405C8.20573 5.90405 7.5319 6.184 6.97852 6.7439C6.42513 7.30379 6.14844 7.97437 6.14844 8.75562C6.14844 9.54989 6.42513 10.2237 6.97852 10.7771C7.5319 11.3305 8.20573 11.6072 9 11.6072C9.78125 11.6072 10.4518 11.3305 11.0117 10.7771C11.5716 10.2237 11.8516 9.54989 11.8516 8.75562ZM13.3945 8.75562C13.3945 9.36759 13.2773 9.94051 13.043 10.4744C12.8216 11.0082 12.5124 11.4737 12.1152 11.8708C11.7181 12.268 11.2526 12.5837 10.7188 12.8181C10.1849 13.0395 9.61198 13.1501 9 13.1501C8.38802 13.1501 7.8151 13.0395 7.28125 12.8181C6.7474 12.5837 6.2819 12.268 5.88477 11.8708C5.48763 11.4737 5.17188 11.0082 4.9375 10.4744C4.71615 9.94051 4.60547 9.36759 4.60547 8.75562C4.60547 8.14364 4.71615 7.57072 4.9375 7.03687C5.17188 6.50301 5.48763 6.03752 5.88477 5.64038C6.2819 5.24325 6.7474 4.934 7.28125 4.71265C7.8151 4.47827 8.38802 4.36108 9 4.36108C9.61198 4.36108 10.1849 4.47827 10.7188 4.71265C11.2526 4.934 11.7181 5.24325 12.1152 5.64038C12.5124 6.03752 12.8216 6.50301 13.043 7.03687C13.2773 7.57072 13.3945 8.14364 13.3945 8.75562ZM14.6055 4.1853C14.6055 4.47176 14.5046 4.71265 14.3027 4.90796C14.1009 5.10327 13.8568 5.20093 13.5703 5.20093C13.2839 5.20093 13.043 5.10327 12.8477 4.90796C12.6523 4.71265 12.5547 4.47176 12.5547 4.1853C12.5547 3.89884 12.6523 3.6547 12.8477 3.45288C13.043 3.25106 13.2839 3.15015 13.5703 3.15015C13.8568 3.15015 14.1009 3.25106 14.3027 3.45288C14.5046 3.6547 14.6055 3.89884 14.6055 4.1853ZM9 1.72437C8.6875 1.72437 8.30339 1.72437 7.84766 1.72437C7.37891 1.71134 6.90365 1.7146 6.42188 1.73413C5.9401 1.75366 5.47786 1.78296 5.03516 1.82202C4.59245 1.8741 4.22786 1.95874 3.94141 2.07593C3.74609 2.15405 3.57031 2.24194 3.41406 2.3396C3.25781 2.43726 3.10807 2.56421 2.96484 2.72046C2.80859 2.87671 2.68164 3.0297 2.58398 3.17944C2.48633 3.32918 2.39844 3.50171 2.32031 3.69702C2.20312 3.98348 2.11849 4.34806 2.06641 4.79077C2.01432 5.23348 1.98177 5.69572 1.96875 6.17749C1.95573 6.65926 1.94922 7.13452 1.94922 7.60327C1.96224 8.059 1.96875 8.44312 1.96875 8.75562C1.96875 9.06812 1.96224 9.45223 1.94922 9.90796C1.94922 10.3767 1.95573 10.852 1.96875 11.3337C1.98177 11.8155 2.01432 12.2778 2.06641 12.7205C2.11849 13.1632 2.20312 13.5278 2.32031 13.8142C2.39844 14.0095 2.48633 14.1853 2.58398 14.3416C2.68164 14.4978 2.80859 14.6475 2.96484 14.7908C3.10807 14.947 3.25781 15.074 3.41406 15.1716C3.57031 15.2693 3.74609 15.3572 3.94141 15.4353C4.22786 15.5525 4.59245 15.6371 5.03516 15.6892C5.47786 15.7413 5.9401 15.7738 6.42188 15.7869C6.90365 15.7999 7.37891 15.8064 7.84766 15.8064C8.30339 15.7934 8.6875 15.7869 9 15.7869C9.3125 15.7869 9.69661 15.7934 10.1523 15.8064C10.6211 15.8064 11.0964 15.7999 11.5781 15.7869C12.0599 15.7738 12.5221 15.7413 12.9648 15.6892C13.4076 15.6371 13.7721 15.5525 14.0586 15.4353C14.2539 15.3572 14.4264 15.2693 14.5762 15.1716C14.7259 15.074 14.8789 14.947 15.0352 14.7908C15.1914 14.6475 15.3184 14.4978 15.416 14.3416C15.5137 14.1853 15.6016 14.0095 15.6797 13.8142C15.7969 13.5278 15.8815 13.1632 15.9336 12.7205C15.9727 12.2778 16.002 11.8155 16.0215 11.3337C16.041 10.852 16.0443 10.3767 16.0312 9.90796C16.0312 9.45223 16.0312 9.06812 16.0312 8.75562C16.0312 8.44312 16.0312 8.059 16.0312 7.60327C16.0443 7.13452 16.041 6.65926 16.0215 6.17749C16.002 5.69572 15.9727 5.23348 15.9336 4.79077C15.8815 4.34806 15.7969 3.98348 15.6797 3.69702C15.6016 3.50171 15.5137 3.32918 15.416 3.17944C15.3184 3.0297 15.1914 2.87671 15.0352 2.72046C14.8789 2.56421 14.7259 2.43726 14.5762 2.3396C14.4264 2.24194 14.2539 2.15405 14.0586 2.07593C13.7721 1.95874 13.4076 1.8741 12.9648 1.82202C12.5221 1.78296 12.0599 1.75366 11.5781 1.73413C11.0964 1.7146 10.6211 1.71134 10.1523 1.72437C9.69661 1.72437 9.3125 1.72437 9 1.72437ZM17.5742 8.75562C17.5742 9.35457 17.571 9.94702 17.5645 10.533C17.5579 11.1189 17.5417 11.7048 17.5156 12.2908C17.4766 12.9809 17.3626 13.6287 17.1738 14.2341C16.985 14.8396 16.6367 15.3897 16.1289 15.8845C15.6211 16.3923 15.0677 16.7439 14.4688 16.9392C13.8698 17.1345 13.2253 17.2452 12.5352 17.2712C11.9492 17.3103 11.36 17.3298 10.7676 17.3298C10.1751 17.3298 9.58594 17.3298 9 17.3298C8.40104 17.3298 7.80859 17.3298 7.22266 17.3298C6.63672 17.3298 6.05078 17.3103 5.46484 17.2712C4.77474 17.2452 4.12695 17.1345 3.52148 16.9392C2.91602 16.7439 2.36589 16.3923 1.87109 15.8845C1.36328 15.3897 1.01172 14.8396 0.816406 14.2341C0.621094 13.6287 0.510417 12.9809 0.484375 12.2908C0.445312 11.7048 0.425781 11.1189 0.425781 10.533C0.425781 9.94702 0.425781 9.35457 0.425781 8.75562C0.425781 8.16968 0.425781 7.58049 0.425781 6.98804C0.425781 6.39559 0.445312 5.8064 0.484375 5.22046C0.510417 4.53035 0.621094 3.88582 0.816406 3.28687C1.01172 2.68791 1.36328 2.13452 1.87109 1.62671C2.36589 1.1189 2.91602 0.77059 3.52148 0.581787C4.12695 0.392984 4.77474 0.279053 5.46484 0.23999C6.05078 0.213949 6.63672 0.197672 7.22266 0.191162C7.80859 0.184652 8.40104 0.181396 9 0.181396C9.58594 0.181396 10.1751 0.184652 10.7676 0.191162C11.36 0.197672 11.9492 0.213949 12.5352 0.23999C13.2253 0.279053 13.8698 0.392984 14.4688 0.581787C15.0677 0.77059 15.6211 1.1189 16.1289 1.62671C16.6367 2.13452 16.985 2.68791 17.1738 3.28687C17.3626 3.88582 17.4766 4.53035 17.5156 5.22046C17.5417 5.8064 17.5579 6.39559 17.5645 6.98804C17.571 7.58049 17.5742 8.16968 17.5742 8.75562Z" fill="white"/>
</svg>
