<svg width="17" height="16" viewBox="0 0 17 16" fill="none" xmlns="http://www.w3.org/2000/svg">
<path fill-rule="evenodd" clip-rule="evenodd" d="M11.5801 6.5C11.5801 9.2614 9.34148 11.5 6.58008 11.5C3.81866 11.5 1.58008 9.2614 1.58008 6.5C1.58008 3.73858 3.81866 1.5 6.58008 1.5C9.34148 1.5 11.5801 3.73858 11.5801 6.5ZM10.4199 11.7451C9.34408 12.5341 8.01648 13 6.58008 13C2.99023 13 0.0800781 10.0899 0.0800781 6.5C0.0800781 2.91015 2.99023 0 6.58008 0C10.17 0 13.0801 2.91015 13.0801 6.5C13.0801 7.9364 12.6142 9.264 11.8252 10.3398L15.7891 14.3036C16.1771 14.6917 16.1771 15.3209 15.7891 15.709C15.401 16.097 14.7718 16.097 14.3837 15.709L10.4199 11.7451Z" fill="#595B66"/>
</svg>
