<svg id="line" height="512" viewBox="0 0 64 64" width="512" xmlns="http://www.w3.org/2000/svg"><path d="m19.72949 40.13574c1.43216-.00162 31.47469.00117 33.87061 0a1.00027 1.00027 0 0 0 .97021-.75732l5.3999-21.6001a.99911.99911 0 0 0 -.18505-.86182.97307.97307 0 0 0 -.79493-.38086l-44.772.43946-2.87839-7.92871a.9996.9996 0 0 0 -.93994-.65869h-5.3999a1.00019 1.00019 0 0 0 .00008 2h4.69914c1.87978 5.17574 8.09078 22.28668 10.0741 27.74805-6.537.1492-6.59056 9.64758-.04372 9.85888h3.06709a4.79054 4.79054 0 0 0 3.88593 7.61767 4.8273 4.8273 0 0 0 3.8853-7.61777l12.155.0001a4.79992 4.79992 0 1 0 7.77171-.0001l3.10543.0001a1.0002 1.0002 0 0 0 -.00008-2h-33.87049a2.92963 2.92963 0 0 1 0-5.85889zm17.71924-2v-8.7998h7.66766l-2.16858 8.7998zm0-10.7998v-8.58863l10.302-.10113-2.14148 8.68976zm-2 0h-8.16l-2.08692-8.46839 10.24692-.10055zm0 2v8.7998h-5.4986l-2.16857-8.7998zm17.37061 8.7998h-7.81122l2.16858-8.7998h7.84265zm2.7-10.7998h-7.84978l2.14648-8.71 7.90027-.07758zm-32.37292-8.44824 2.082 8.44824h-7.24856l-3.038-8.36768zm-4.44042 10.44824h7.01526l2.16858 8.7998c-1.292-.01174-4.747.00846-5.98894 0zm10.78521 21.46777a2.809 2.809 0 0 1 -5.61767-.00008 2.809 2.809 0 0 1 5.61767.00008zm19.92676 0a2.80926 2.80926 0 0 1 -5.61816-.00008 2.80926 2.80926 0 0 1 5.61819.00008z"/></svg>