<svg width="17" height="18" viewBox="0 0 17 18" fill="none" xmlns="http://www.w3.org/2000/svg">
<path fill-rule="evenodd" clip-rule="evenodd" d="M8.40991 0C6.20077 0 4.40991 1.79086 4.40991 4V5C4.40991 7.2091 6.20077 9 8.40991 9C10.619 9 12.4099 7.2091 12.4099 5V4C12.4099 1.79086 10.619 0 8.40991 0ZM5.90991 4C5.90991 2.61929 7.02921 1.5 8.40991 1.5C9.79061 1.5 10.9099 2.61929 10.9099 4V5C10.9099 6.38071 9.79061 7.5 8.40991 7.5C7.02921 7.5 5.90991 6.38071 5.90991 5V4ZM1.91223 16.3686C2.38312 13.2577 5.42794 11.5 8.41211 11.5C11.3957 11.5 14.4409 13.2577 14.9118 16.3686C14.9145 16.3866 14.9124 16.3972 14.9099 16.4048C14.9069 16.4137 14.9002 16.4269 14.8858 16.442C14.8552 16.4741 14.7993 16.5039 14.727 16.5039H2.09709C2.02478 16.5039 1.96889 16.4741 1.93829 16.442C1.92385 16.4269 1.91717 16.4137 1.91418 16.4048C1.91165 16.3972 1.90952 16.3865 1.91223 16.3686ZM8.41211 10C4.98312 10 1.05028 12.0404 0.429129 16.1441C0.266149 17.2208 1.16718 18.0039 2.09709 18.0039H14.727C15.6569 18.0039 16.5579 17.2208 16.3949 16.1441C15.7737 12.0404 11.8405 10 8.41211 10Z" fill="#606060"/>
</svg>
